<svg width="500" height="500" viewBox="0 0 700 700" fill="none" xmlns="http://www.w3.org/2000/svg">
<circle cx="350" cy="350" r="350" fill="#B3001B"/>
<circle cx="350" cy="350" r="300" fill="#627264"/>
<path d="M207.148 263.426V224.364H479.875V263.426H365.528V588H321.494V263.426H207.148Z" fill="#EED5AE"/>
<path d="M343 75L511.009 225H174.991L343 75Z" fill="#B3001B"/>
<path d="M233.949 589H187.784L321.307 225.364H366.761L500.284 589H454.119L345.455 282.892H342.614L233.949 589ZM250.994 446.955H437.074V486.017H250.994V446.955Z" fill="#EED5AE"/>
<path d="M240.233 264.455L339.551 546.074H343.472L442.79 264.455H485.261L362.42 599H320.602L197.761 264.455H240.233Z" fill="#B3001B"/>
<line x1="176" y1="244" x2="222" y2="244" stroke="#EED5AE" stroke-width="38"/>
<line x1="466" y1="244" x2="512" y2="244" stroke="#EED5AE" stroke-width="38"/>
</svg>
