<svg width="35" height="37" viewBox="0 0 35 37" fill="none" xmlns="http://www.w3.org/2000/svg">
<path d="M30.9488 18.1478H35" stroke="#EED5AE" stroke-width="4.08923"/>
<path d="M0 18.1478H22.3139" stroke="#EED5AE" stroke-width="4.08923"/>
<path d="M13.5711 6.61307H35" stroke="#EED5AE" stroke-width="4.08923"/>
<path d="M0 6.61307H4.95066" stroke="#EED5AE" stroke-width="4.08923"/>
<path d="M19.6587 29.6826H35" stroke="#EED5AE" stroke-width="4.08923"/>
<path d="M0 29.6826H11.0238" stroke="#EED5AE" stroke-width="4.08923"/>
<path d="M9.26088 10.7074C11.6453 10.7074 13.5783 8.77446 13.5783 6.39001C13.5783 4.00555 11.6453 2.07257 9.26088 2.07257C6.87643 2.07257 4.94345 4.00555 4.94345 6.39001C4.94345 8.77446 6.87643 10.7074 9.26088 10.7074Z" stroke="#EED5AE" stroke-width="4.08923"/>
<path d="M26.6314 22.4653C29.0158 22.4653 30.9488 20.5323 30.9488 18.1478C30.9488 15.7634 29.0158 13.8304 26.6314 13.8304C24.2469 13.8304 22.3139 15.7634 22.3139 18.1478C22.3139 20.5323 24.2469 22.4653 26.6314 22.4653Z" stroke="#EED5AE" stroke-width="4.08923"/>
<path d="M15.3413 34C17.7258 34 19.6587 32.067 19.6587 29.6825C19.6587 27.2981 17.7258 25.3651 15.3413 25.3651C12.9568 25.3651 11.0239 27.2981 11.0239 29.6825C11.0239 32.067 12.9568 34 15.3413 34Z" stroke="#EED5AE" stroke-width="4.08923"/>
</svg>
