<svg width="45" height="45" viewBox="0 0 45 45" fill="none" xmlns="http://www.w3.org/2000/svg">
<path d="M24.8119 20.2851V7.782C24.8119 7.48288 24.6931 7.19602 24.4816 6.98451C24.2701 6.773 23.9832 6.65417 23.6841 6.65417H21.4284C21.1293 6.65417 20.8424 6.773 20.6309 6.98451C20.4194 7.19602 20.3006 7.48288 20.3006 7.782V21.9768C20.3006 22.2759 20.4195 22.5627 20.631 22.7742L27.7363 29.8795C27.9478 30.091 28.2347 30.2097 28.5337 30.2097C28.8328 30.2097 29.1196 30.091 29.3311 29.8795L30.8379 28.3727C31.0493 28.1612 31.1681 27.8744 31.1681 27.5754C31.1681 27.2763 31.0493 26.9895 30.8379 26.778L25.1378 21.078C24.9291 20.8669 24.8119 20.582 24.8119 20.2851Z" fill="#EED5AE"/>
<path d="M40.6725 24.6994C40.2515 28.0938 38.8858 31.3016 36.7309 33.9578C34.5759 36.6139 31.7184 38.6115 28.4837 39.7231C25.249 40.8346 21.7672 41.0155 18.4348 40.2451C15.1023 39.4746 12.0532 37.7839 9.63466 35.3653C7.21611 32.9468 5.52535 29.8977 4.75492 26.5652C3.98449 23.2328 4.16536 19.751 5.27693 16.5163C6.3885 13.2816 8.3861 10.4241 11.0422 8.26914C13.6983 6.1142 16.9062 4.74847 20.3006 4.32747V0C16.053 0.426958 12.0138 2.05051 8.6523 4.68198C5.29082 7.31346 2.7451 10.8448 1.31095 14.8657C-0.12319 18.8866 -0.386867 23.2319 0.550562 27.3967C1.48799 31.5614 3.58804 35.3747 6.60666 38.3933C9.62529 41.412 13.4386 43.512 17.6033 44.4494C21.7681 45.3869 26.1134 45.1232 30.1343 43.689C34.1552 42.2549 37.6865 39.7092 40.318 36.3477C42.9495 32.9862 44.573 28.947 45 24.6994H40.6725ZM31.7717 1.87107C29.5681 0.875395 27.2177 0.243512 24.8119 0V4.32747C26.4657 4.53591 28.0829 4.9716 29.6176 5.62222L31.7717 1.87107ZM37.2473 11.6381L41.0188 9.52901C39.559 7.43774 37.757 5.60756 35.6887 4.11544L33.5266 7.88013C34.9404 8.94809 36.1935 10.2137 37.2473 11.6381ZM39.4454 15.5798C40.0569 17.0547 40.4695 18.6044 40.6725 20.1881H45C44.7658 17.8672 44.1698 15.5973 43.2338 13.4606L39.4454 15.5798Z" fill="#EED5AE"/>
</svg>
