<svg width="20" height="19" viewBox="0 0 20 19" fill="none" xmlns="http://www.w3.org/2000/svg">
<path d="M18.7551 17.0938L15.2044 13.5625C16.35 12.1067 16.9716 10.309 16.9693 8.45834C16.9693 6.81016 16.4793 5.19899 15.5613 3.82858C14.6433 2.45818 13.3385 1.39007 11.8119 0.759341C10.2853 0.128611 8.60547 -0.0364171 6.98485 0.285126C5.36422 0.60667 3.87559 1.40034 2.70718 2.56578C1.53878 3.73122 0.743088 5.21608 0.420727 6.83258C0.098365 8.44909 0.263813 10.1246 0.896148 11.6474C1.52848 13.1701 2.59931 14.4716 3.9732 15.3872C5.3471 16.3029 6.96236 16.7917 8.61474 16.7917C10.4701 16.794 12.2724 16.1739 13.7319 15.0313L17.2721 18.5729C17.3692 18.6706 17.4847 18.748 17.612 18.8009C17.7392 18.8538 17.8757 18.881 18.0136 18.881C18.1515 18.881 18.288 18.8538 18.4152 18.8009C18.5425 18.748 18.658 18.6706 18.7551 18.5729C18.8529 18.4761 18.9306 18.3609 18.9837 18.2339C19.0367 18.107 19.064 17.9708 19.064 17.8333C19.064 17.6958 19.0367 17.5597 18.9837 17.4327C18.9306 17.3058 18.8529 17.1906 18.7551 17.0938ZM2.34883 8.45834C2.34883 7.2222 2.71632 6.01383 3.40483 4.98602C4.09333 3.95822 5.07193 3.15714 6.21688 2.68409C7.36182 2.21104 8.62169 2.08727 9.83715 2.32843C11.0526 2.56959 12.1691 3.16484 13.0454 4.03892C13.9217 4.913 14.5185 6.02664 14.7602 7.23902C15.002 8.4514 14.8779 9.70807 14.4037 10.8501C13.9294 11.9921 13.1263 12.9683 12.0959 13.655C11.0655 14.3418 9.85401 14.7083 8.61474 14.7083C6.95291 14.7083 5.35916 14.0499 4.18407 12.8778C3.00899 11.7057 2.34883 10.1159 2.34883 8.45834Z" fill="#EED5AE"/>
</svg>
