<svg width="46" height="46" viewBox="0 0 46 46" fill="none" xmlns="http://www.w3.org/2000/svg">
<path d="M9 19H13C17 19 19 17 19 13V9C19 5 17 3 13 3H9C5 3 3 5 3 9V13C3 17 5 19 9 19Z" stroke="#EED5AE" stroke-width="5.89188" stroke-miterlimit="10" stroke-linecap="round" stroke-linejoin="round"/>
<path d="M33 19H37C41 19 43 17 43 13V9C43 5 41 3 37 3H33C29 3 27 5 27 9V13C27 17 29 19 33 19Z" stroke="#EED5AE" stroke-width="5.89188" stroke-miterlimit="10" stroke-linecap="round" stroke-linejoin="round"/>
<path d="M33 43H37C41 43 43 41 43 37V33C43 29 41 27 37 27H33C29 27 27 29 27 33V37C27 41 29 43 33 43Z" stroke="#EED5AE" stroke-width="5.89188" stroke-miterlimit="10" stroke-linecap="round" stroke-linejoin="round"/>
<path d="M9 43H13C17 43 19 41 19 37V33C19 29 17 27 13 27H9C5 27 3 29 3 33V37C3 41 5 43 9 43Z" stroke="#EED5AE" stroke-width="5.89188" stroke-miterlimit="10" stroke-linecap="round" stroke-linejoin="round"/>
</svg>
